Coordinates
version=1
nRows=14
nColumns=38
inDegrees=no

Units are S.I. units (second, meters, Newtons, ...)
If the header above contains a line with 'inDegrees', this indicates whether rotational values are in degrees (yes) or radians (no).

endheader
time	pelvis_tilt	pelvis_list	pelvis_rotation	pelvis_tx	pelvis_ty	pelvis_tz	hip_flexion_r	hip_adduction_r	hip_rotation_r	knee_angle_r	ankle_angle_r	subtalar_angle_r	mtp_angle_r	hip_flexion_l	hip_adduction_l	hip_rotation_l	knee_angle_l	ankle_angle_l	subtalar_angle_l	mtp_angle_l	lumbar_extension	lumbar_bending	lumbar_rotation	arm_flex_r	arm_add_r	arm_rot_r	elbow_flex_r	pro_sup_r	wrist_flex_r	wrist_dev_r	arm_flex_l	arm_add_l	arm_rot_l	elbow_flex_l	pro_sup_l	wrist_flex_l	wrist_dev_l
40	0.229792	1.32955	-1.52255	0.791716	-0.661673	0.94488	-0.41965	-0.0352848	-0.28043	0.0657974	-0.341684	0	0	-0.325947	-0.127028	-0.179847	0.0595447	-0.416866	0	0	-0.554821	0.127247	-0.847193	0.503016	0.143731	0.757928	0.347798	1.5708	0	0	-0.442291	-0.0510264	-0.56161	1.18928	1.5708	0	0
40.01	0.226749	1.33292	-1.52287	0.791085	-0.662058	0.945156	-0.414151	-0.0336965	-0.278285	0.0672891	-0.34178	0	0	-0.362078	-0.109129	-0.10968	0	-0.433455	0	0	-0.551556	0.127183	-0.844156	0.509894	0.149728	0.765827	0.330448	1.5708	0	0	-0.437332	-0.0497785	-0.564794	1.18077	1.5708	0	0
40.02	0.490555	1.24971	-1.60662	0.794459	-0.641196	0.953869	-0.509629	-0.0325215	-0.487468	0.0684367	-0.361529	0	0	-0.382198	-0.0880282	0.214669	0	-0.472983	0	0	-0.664784	0.129445	-1.02459	0.520088	0.218264	0.74918	0.306516	1.5708	0	0	-0.489009	-0.101808	-0.607147	1.28907	1.5708	0	0
40.03	0.491501	1.24851	-1.60681	0.7945	-0.64111	0.953962	-0.511103	-0.0324511	-0.489599	0.0681301	-0.363848	0	0	-0.383566	-0.0878896	0.216639	0	-0.476874	0	0	-0.666251	0.129439	-1.02614	0.520447	0.219324	0.750147	0.305306	1.5708	0	0	-0.490068	-0.101505	-0.60859	1.29085	1.5708	0	0
40.04	0.230486	1.33053	-1.52571	0.791264	-0.662004	0.945391	-0.417209	-0.0342743	-0.281731	0.066941	-0.343131	0	0	-0.367029	-0.108052	-0.10305	0	-0.464964	0	0	-0.553886	0.126764	-0.847174	0.514167	0.152638	0.785262	0.32119	1.5708	0	0	-0.43893	-0.0495924	-0.566861	1.18302	1.5708	0	0
40.05	0.230726	1.3306	-1.52605	0.791304	-0.662039	0.945378	-0.417136	-0.0344583	-0.281866	0.0670438	-0.342741	0	0	-0.367	-0.107935	-0.103327	0	-0.464645	0	0	-0.553663	0.1267	-0.847294	0.514169	0.152742	0.785256	0.320974	1.5708	0	0	-0.439014	-0.0496873	-0.566907	1.18307	1.5708	0	0
40.06	0.231076	1.33012	-1.52657	0.791384	-0.662054	0.945405	-0.417683	-0.034778	-0.282	0.0668368	-0.342821	0	0	-0.367694	-0.107685	-0.103802	0	-0.464573	0	0	-0.55387	0.126754	-0.847665	0.514427	0.152994	0.785772	0.320582	1.5708	0	0	-0.4391	-0.0497407	-0.567053	1.18307	1.5708	0	0
40.07	0.485012	1.25448	-1.59038	0.795382	-0.639691	0.953245	-0.503569	-0.0269077	-0.493896	0.0704926	-0.362146	0	0	-0.344382	-0.0890489	0.25471	0	-0.515318	0	0	-0.662308	0.137449	-1.04485	0.526659	0.229505	0.767141	0.294431	1.5708	0	0	-0.497382	-0.0966536	-0.621732	1.29839	1.5708	0	0
40.08	0.231663	1.32908	-1.52741	0.791488	-0.662065	0.945477	-0.419414	-0.034804	-0.281741	0.0655321	-0.343852	0	0	-0.369045	-0.107366	-0.104014	0	-0.465387	0	0	-0.55468	0.126738	-0.848469	0.515193	0.153684	0.788545	0.319298	1.5708	0	0	-0.439533	-0.049802	-0.567768	1.18366	1.5708	0	0
40.09	0.487464	1.2479	-1.60508	0.794802	-0.641103	0.954068	-0.511599	-0.0326039	-0.485598	0.0681416	-0.362606	0	0	-0.384756	-0.0879184	0.213307	0	-0.478201	0	0	-0.668137	0.129253	-1.03529	0.525447	0.227265	0.767534	0.295692	1.5708	0	0	-0.496456	-0.0964307	-0.619715	1.29588	1.5708	0	0
40.1	0.218152	1.33822	-1.51043	0.792039	-0.66184	0.944441	-0.408337	-0.0313568	-0.280921	0.0681718	-0.341276	0	0	-0.334657	-0.106399	-0.0959457	0	-0.495537	0	0	-0.544385	0.131807	-0.850303	0.514565	0.152175	0.78816	0.320192	1.5708	0	0	-0.438272	-0.0493394	-0.566903	1.18146	1.5708	0	0
40.11	0.228912	1.33224	-1.52536	0.791643	-0.662293	0.9453	-0.415341	-0.0349042	-0.280574	0.0674038	-0.341622	0	0	-0.366113	-0.107584	-0.104057	0	-0.479029	0	0	-0.551009	0.126997	-0.847046	0.513917	0.152351	0.786728	0.320266	1.5708	0	0	-0.43845	-0.0501649	-0.566614	1.18168	1.5708	0	0
40.12	0.488999	1.24972	-1.60696	0.794877	-0.641555	0.953924	-0.510247	-0.0330233	-0.486398	0.0674481	-0.362249	0	0	-0.383466	-0.0875338	0.213219	0	-0.479781	0	0	-0.663953	0.129073	-1.02451	0.520332	0.218472	0.753362	0.304898	1.5708	0	0	-0.489552	-0.102602	-0.607862	1.2898	1.5708	0	0
40.13	0.227021	1.33038	-1.52374	0.79167	-0.662332	0.945439	-0.417745	-0.0343442	-0.280438	0.0661247	-0.344146	0	0	-0.368245	-0.107926	-0.10415	0	-0.464426	0	0	-0.553192	0.127239	-0.847094	0.513401	0.15262	0.783007	0.321998	1.5708	0	0	-0.439133	-0.0501563	-0.567529	1.18339	1.5708	0	0
